<svg height="22" viewBox="0 0 95 22" width="95" xmlns="http://www.w3.org/2000/svg"><g fill="#13395b" fill-rule="evenodd"><path d="m83.0409824 18.6474901c-4.2307692 0-7.8049231-3.6058242-7.8049231-7.8738242 0-4.26824172 3.5741539-7.8740659 7.8049231-7.8740659s7.8049231 3.60582418 7.8049231 7.8740659h-.0004835c0 1.619055-.5151868 3.1421319-1.3845495 4.4099121l-2.3776923-2.3774505-1.9768571 1.9768571 2.3996923 2.3996923c-1.275033.9177143-2.8196264 1.4648132-4.465033 1.4648132zm11.0674506 1.1836484-2.3757583-2.3757583c1.4807693-1.8197143 2.3581099-4.1326154 2.3581099-6.6817143 0-6.00479117-4.8537802-10.70795601-11.0498022-10.70795601-6.1965055 0-11.0502857 4.70316484-11.0502857 10.70795601 0 6.0045495 4.8537802 10.7079561 11.0502857 10.7079561 2.5203297 0 4.8184835-.7784616 6.6582638-2.1059561l2.4323296 2.4323297z"/><path d="m.18912747 21.0368352v-20.52817586h3.04035165v17.69404396h12.39905498v2.8341319z"/><path d="m51.8744769 11.4397824h6.4044176c3.3403736 0 4.5254725-2.18041756 4.5254725-4.04824174 0-1.86758242-1.1850989-4.048-4.5254725-4.048h-6.4044176zm10.0336923 9.5970769-4.4747033-6.7622197h-5.558989v6.7622197h-3.0403516v-20.52817578h9.7520439c4.3414945 0 7.2585495 2.76571428 7.2585495 6.88285714 0 2.77054944-1.8434066 5.13204394-4.6966374 6.01518684l-.6039121.1873626 5.2171429 7.4427692z"/><path d="m25.715244 21.0368352 6.3858022-15.68551652 6.328989 15.68551652h3.3906593l-8.0607033-19.03024179c-.3846374-.90804396-1.275033-1.49793407-2.2611648-1.49793407h-6.4878242v.5309011c0 1.15923077.9397143 2.09894505 2.0991868 2.09894505h3.0628352l-7.8216044 17.89832971z"/></g></svg>